<svg width="267" height="28" viewBox="0 0 267 28" fill="none" xmlns="http://www.w3.org/2000/svg">
<path d="M0.287695 27V1.2H8.4177V5.31H5.4477V22.89H8.4177V27H0.287695ZM258.572 27V22.89H261.542V5.31H258.572V1.2H266.702V27H258.572Z" fill="#E3B603"/>
<path d="M19.0785 1.23H25.8885C27.9485 1.23 29.4185 1.9 30.2985 3.24C31.1785 4.56 31.6185 6.5 31.6185 9.06C31.6185 11.62 31.2285 13.55 30.4485 14.85C29.6685 16.15 28.2685 16.8 26.2485 16.8H24.1485V27H19.0785V1.23ZM24.4485 12.15C25.0685 12.15 25.5185 12.04 25.7985 11.82C26.0985 11.58 26.2885 11.25 26.3685 10.83C26.4685 10.39 26.5185 9.77 26.5185 8.97C26.5185 7.89 26.3985 7.11 26.1585 6.63C25.9185 6.15 25.4385 5.91 24.7185 5.91H24.1485V12.15H24.4485ZM42.2289 27V1.23H52.5489V6.21H47.4789V11.22H52.3389V16.08H47.4789V21.99H52.8789V27H42.2289ZM65.8121 27V6.18H62.7521V1.23H74.0321V6.18H70.9721V27H65.8121ZM84.4867 27V1.23H94.8067V6.21H89.7367V11.22H94.5967V16.08H89.7367V21.99H95.1367V27H84.4867ZM105.85 1.23H113.77C115.03 1.23 116 1.52 116.68 2.1C117.38 2.66 117.85 3.46 118.09 4.5C118.33 5.52 118.45 6.83 118.45 8.43C118.45 9.89 118.26 11.03 117.88 11.85C117.5 12.67 116.84 13.24 115.9 13.56C116.68 13.72 117.24 14.11 117.58 14.73C117.94 15.35 118.12 16.19 118.12 17.25L118.06 27H113.02V16.92C113.02 16.2 112.88 15.74 112.6 15.54C112.32 15.34 111.81 15.24 111.07 15.24V27H105.85V1.23ZM112.33 10.77C113.05 10.77 113.41 9.99 113.41 8.43C113.41 7.75 113.38 7.24 113.32 6.9C113.26 6.56 113.15 6.33 112.99 6.21C112.83 6.07 112.6 6 112.3 6H111.1V10.77H112.33ZM145.178 27V1.23H150.278V11.55L152.678 1.23H157.868L154.988 13.02L158.468 27H153.128L150.308 14.52V27H145.178ZM174.298 27.24C172.178 27.24 170.598 26.64 169.558 25.44C168.538 24.24 168.028 22.46 168.028 20.1V1.23H173.038V19.89C173.038 20.71 173.118 21.35 173.278 21.81C173.438 22.27 173.778 22.5 174.298 22.5C174.818 22.5 175.158 22.28 175.318 21.84C175.478 21.38 175.558 20.73 175.558 19.89V1.23H180.568V20.1C180.568 22.46 180.048 24.24 179.008 25.44C177.988 26.64 176.418 27.24 174.298 27.24ZM191.537 27V1.23H196.697V22.62H202.007V27H191.537ZM212.461 27V1.23H217.561V11.55L219.961 1.23H225.151L222.271 13.02L225.751 27H220.411L217.591 14.52V27H212.461ZM241.762 27.24C239.682 27.24 238.102 26.61 237.022 25.35C235.942 24.07 235.402 22.28 235.402 19.98V7.71C235.402 5.49 235.942 3.82 237.022 2.7C238.102 1.56 239.682 0.989999 241.762 0.989999C243.842 0.989999 245.422 1.56 246.502 2.7C247.582 3.82 248.122 5.49 248.122 7.71V19.98C248.122 22.3 247.582 24.09 246.502 25.35C245.422 26.61 243.842 27.24 241.762 27.24ZM241.762 22.5C242.222 22.5 242.532 22.3 242.692 21.9C242.852 21.5 242.932 20.94 242.932 20.22V7.62C242.932 7.06 242.852 6.61 242.692 6.27C242.552 5.91 242.252 5.73 241.792 5.73C240.932 5.73 240.502 6.38 240.502 7.68V20.25C240.502 20.99 240.592 21.55 240.772 21.93C240.952 22.31 241.282 22.5 241.762 22.5Z" fill="#3F3F3F"/>
</svg>
